<svg xmlns="http://www.w3.org/2000/svg" viewBox="0 0 32 32" fill="none">
  <!-- Outer dark circle -->
  <circle cx="16" cy="16" r="16" fill="#1a1008"/>
  <!-- Gold ring -->
  <circle cx="16" cy="16" r="14" fill="none" stroke="url(#ring)" stroke-width="1.5"/>
  <circle cx="16" cy="16" r="12.5" fill="none" stroke="url(#ring)" stroke-width="0.5"/>
  <!-- Inner dark background -->
  <circle cx="16" cy="16" r="12" fill="#0d0804"/>
  <!-- Stylized P letter -->
  <path d="M11 24V9h5.5c3.5 0 5.5 2 5.5 4.5S20 18 16.5 18H14.5v6H11z" fill="url(#gold)"/>
  <path d="M14.5 11.5v4h2c1.8 0 2.5-0.8 2.5-2s-0.7-2-2.5-2h-2z" fill="#0d0804"/>
  <!-- Arrow accent on P -->
  <path d="M18 8l3 3-1.5 0.5L18 10V8z" fill="url(#gold)" opacity="0.9"/>
  <!-- Star accents -->
  <circle cx="8" cy="14" r="0.6" fill="#d4a04a" opacity="0.7"/>
  <circle cx="24" cy="20" r="0.5" fill="#d4a04a" opacity="0.6"/>
  <circle cx="22" cy="10" r="0.4" fill="#d4a04a" opacity="0.5"/>
  <circle cx="10" cy="22" r="0.4" fill="#d4a04a" opacity="0.5"/>
  <defs>
    <linearGradient id="gold" x1="10" y1="8" x2="22" y2="26" gradientUnits="userSpaceOnUse">
      <stop offset="0%" stop-color="#f0c050"/>
      <stop offset="50%" stop-color="#d4a04a"/>
      <stop offset="100%" stop-color="#b87333"/>
    </linearGradient>
    <linearGradient id="ring" x1="2" y1="2" x2="30" y2="30" gradientUnits="userSpaceOnUse">
      <stop offset="0%" stop-color="#f0c050"/>
      <stop offset="50%" stop-color="#d4a04a"/>
      <stop offset="100%" stop-color="#b87333"/>
    </linearGradient>
  </defs>
</svg>
